<svg width="46" height="45" viewBox="0 0 46 45" fill="none" xmlns="http://www.w3.org/2000/svg">
<path d="M0.5 5.31219L0.531715 5.02853C0.670951 3.78316 1.2643 2.63279 2.19831 1.79736C3.13232 0.961929 4.34147 0.500042 5.59459 0.5C5.5946 0.5 5.5946 0.5 5.59461 0.5H34.1892C34.8582 0.5 35.5207 0.631776 36.1388 0.887803C36.7569 1.14383 37.3185 1.51909 37.7916 1.99217C38.2647 2.46525 38.64 3.02687 38.896 3.64498C39.152 4.26308 39.2838 4.92556 39.2838 5.59459V7.67578V8.07097L39.6683 8.16226C41.3288 8.5565 42.8077 9.49932 43.866 10.8382C44.9243 12.1772 45.5 13.8339 45.5 15.5406V36.6757C45.5 38.6863 44.7013 40.6146 43.2796 42.0363C41.8578 43.458 39.9295 44.2568 37.9189 44.2568H8.08108C6.07045 44.2568 4.14218 43.458 2.72045 42.0363C1.29872 40.6146 0.5 38.6863 0.5 36.6757V5.31219ZM3.72973 10.6892H3.22973V11.1892V36.6757C3.22973 39.3538 5.40299 41.527 8.08108 41.527H37.9189C39.2056 41.527 40.4395 41.0159 41.3493 40.1061C42.2591 39.1963 42.7703 37.9623 42.7703 36.6757V15.5405C42.7703 14.2539 42.2591 13.0199 41.3493 12.1101C40.4395 11.2003 39.2056 10.6892 37.9189 10.6892H3.72973ZM36.0541 7.95946H36.5541V7.45946V5.59459C36.5541 4.96739 36.3049 4.36588 35.8614 3.92238C35.4179 3.47888 34.8164 3.22973 34.1892 3.22973H5.59459C4.96739 3.22973 4.36588 3.47888 3.92238 3.92238C3.47888 4.36588 3.22973 4.96739 3.22973 5.59459C3.22973 6.2218 3.47888 6.82331 3.92238 7.26681C4.36588 7.71031 4.96739 7.95946 5.59459 7.95946H36.0541ZM31.5811 26.7297C31.5811 26.3677 31.7249 26.0206 31.9808 25.7646C32.2368 25.5087 32.584 25.3649 32.9459 25.3649H37.9189C38.2809 25.3649 38.6281 25.5087 38.884 25.7646C39.14 26.0206 39.2838 26.3677 39.2838 26.7297C39.2838 27.0917 39.14 27.4389 38.884 27.6948C38.6281 27.9508 38.2809 28.0946 37.9189 28.0946H32.9459C32.584 28.0946 32.2368 27.9508 31.9808 27.6948C31.7249 27.4389 31.5811 27.0917 31.5811 26.7297Z" fill="white"/>
</svg>
