<svg width="33" height="52" viewBox="0 0 33 52" fill="none" xmlns="http://www.w3.org/2000/svg">
<path d="M3.66667 3.16667H3.16667V3.66667V36.6667V37.1667H3.66667H29.3333H29.8333V36.6667V3.66667V3.16667H29.3333H3.66667ZM3.16667 47.6667V48.1667H3.66667H29.3333H29.8333V47.6667V40.3333V39.8333H29.3333H3.66667H3.16667V40.3333V47.6667ZM3.66667 0.5H29.3333C30.1732 0.5 30.9786 0.83363 31.5725 1.4275C32.1664 2.02136 32.5 2.82681 32.5 3.66667V47.6667C32.5 48.5065 32.1664 49.312 31.5725 49.9058C30.9786 50.4997 30.1732 50.8333 29.3333 50.8333H3.66667C2.82681 50.8333 2.02136 50.4997 1.4275 49.9058C0.83363 49.312 0.5 48.5065 0.5 47.6667V3.66667C0.5 2.82681 0.833631 2.02136 1.4275 1.4275C2.02136 0.83363 2.82681 0.5 3.66667 0.5Z" fill="#ffffff" />
<path d="M15.167 42.6666H17.8337V45.3333H15.167V42.6666Z" fill="#ffffff" />
</svg>
