<svg width="51" height="38" viewBox="0 0 51 38" fill="none" xmlns="http://www.w3.org/2000/svg">
<path d="M3.00065 9.5V10H3.50065H47.834H48.334V9.5V6.33333C48.334 5.36087 47.9477 4.42824 47.26 3.74061C46.5724 3.05297 45.6398 2.66667 44.6673 2.66667H6.66732C5.69486 2.66667 4.76223 3.05297 4.07459 3.74061C3.38696 4.42824 3.00065 5.36087 3.00065 6.33333V9.5ZM48.334 15.8333V15.3333H47.834H3.50065H3.00065V15.8333V31.6667C3.00065 32.6391 3.38696 33.5718 4.07459 34.2594C4.76223 34.947 5.69486 35.3333 6.66732 35.3333H44.6673C45.6398 35.3333 46.5724 34.947 47.26 34.2594C47.9477 33.5718 48.334 32.6391 48.334 31.6667V15.8333ZM0.833984 6.33333C0.833984 4.78624 1.44857 3.30251 2.54253 2.20854C3.63649 1.11458 5.12022 0.5 6.66732 0.5H44.6673C46.2144 0.5 47.6981 1.11458 48.7921 2.20854C49.8861 3.30251 50.5007 4.78624 50.5007 6.33333V31.6667C50.5007 33.2138 49.8861 34.6975 48.7921 35.7915C47.6981 36.8854 46.2144 37.5 44.6673 37.5H6.66732C5.12022 37.5 3.63649 36.8854 2.54253 35.7915C1.44857 34.6975 0.833984 33.2138 0.833984 31.6667V6.33333Z" fill="white" />
<path d="M7.16699 25.3333C7.16699 24.626 7.44794 23.9478 7.94804 23.4477C8.44814 22.9476 9.12642 22.6666 9.83366 22.6666H13.0003C13.7076 22.6666 14.3858 22.9476 14.8859 23.4477C15.386 23.9478 15.667 24.626 15.667 25.3333V28.5C15.667 29.2072 15.386 29.8855 14.8859 30.3856C14.3858 30.8857 13.7076 31.1666 13.0003 31.1666H9.83366C9.12642 31.1666 8.44814 30.8857 7.94804 30.3856C7.44794 29.8855 7.16699 29.2072 7.16699 28.5V25.3333Z" fill="white" stroke="#0F282E"/>
</svg>
