<svg width="43" height="44" viewBox="0 0 43 44" fill="none" xmlns="http://www.w3.org/2000/svg">
<path d="M41.6407 6.95983L41.6408 6.95984L42.75 7.07217V8.19325C42.75 16.4664 41.397 23.5327 38.7402 29.2047C35.239 36.6796 29.5509 41.5349 21.8241 43.652L21.5 43.7408L21.1759 43.652C13.449 41.5349 7.76104 36.6796 4.25978 29.2047C1.60303 23.5327 0.25 16.4664 0.25 8.19325V7.07218L1.35966 6.95984L1.35995 6.95981C1.42871 6.95277 4.59372 6.61714 8.47759 5.65349C12.3518 4.69224 16.9854 3.09588 19.9587 0.546386C19.9587 0.546382 19.9587 0.546378 19.9587 0.546374L20.3044 0.25H22.6956L23.0412 0.546367L23.204 0.356593L23.0412 0.546375C26.0196 3.10028 30.6532 4.69665 34.5263 5.65682C38.4089 6.61937 41.5715 6.95279 41.6407 6.95983ZM40.2724 9.51186L40.2765 9.2905L40.0572 9.25968C36.8284 8.80576 28.6223 7.34381 23.121 3.69418L22.7328 3.43664V3.9025V11.9175V12.1675H22.9828H39.9346H40.1714L40.1842 11.9309C40.2283 11.1151 40.2577 10.3087 40.2724 9.51186ZM22.9828 28.054H22.7328V28.304V32.0282V32.2782H22.9828H34.0015H34.1323L34.2069 32.1708C35.0346 30.9787 35.7654 29.7217 36.3924 28.4119L36.5637 28.054H36.1669H22.9828ZM22.7328 25.3246V25.5746H22.9828H37.0658V25.5931L37.5504 25.6797C38.036 24.364 38.4482 23.0222 38.7851 21.6604L38.8618 21.3504H38.5425H22.9828H22.7328V21.6004V25.3246ZM22.7328 18.621V18.871H22.9828H39.1762H39.3857L39.4224 18.6649C39.6443 17.4185 39.8171 16.1673 39.9475 14.9229L39.9764 14.6468H39.6988H22.9828H22.7328V14.8968V18.621ZM2.94276 9.25968L2.72352 9.2905L2.72761 9.51186C2.94671 21.3734 6.24133 35.7798 19.9332 40.664L20.2672 40.7831V40.4285V3.90232V3.43644L19.879 3.69399C14.3777 7.34381 6.17158 8.80576 2.94276 9.25968ZM22.7328 40.4285V40.7831L23.0668 40.664C26.5974 39.4046 29.4414 37.5089 31.7194 35.1824L32.1355 34.7575H31.5408H22.9828H22.7328V35.0075V40.4285Z" fill="white" />
</svg>
