<svg width="23" height="28" viewBox="0 0 23 28" fill="none" xmlns="http://www.w3.org/2000/svg">
<path d="M18.9295 14.9319C18.9165 12.7228 19.9174 11.0579 21.9386 9.83027C20.8081 8.2107 19.0979 7.31994 16.8435 7.14827C14.7089 6.97984 12.3735 8.39209 11.5183 8.39209C10.6146 8.39209 8.54805 7.20657 6.92201 7.20657C3.56628 7.2584 0 9.88209 0 15.2202C0 16.7976 0.288282 18.4269 0.864846 20.1048C1.63576 22.3139 4.41493 27.7264 7.31395 27.639C8.82986 27.6033 9.90201 26.5636 11.8746 26.5636C13.789 26.5636 14.7801 27.639 16.471 27.639C19.3959 27.5969 21.9094 22.6766 22.6415 20.4611C18.7189 18.6115 18.9295 15.0453 18.9295 14.9319ZM15.5251 5.05256C17.1674 3.1026 17.0184 1.32756 16.9698 0.689453C15.5187 0.77367 13.8408 1.67739 12.8852 2.78841C11.8325 3.9804 11.2139 5.45421 11.3467 7.11588C12.9144 7.23573 14.3461 6.42918 15.5251 5.05256Z" fill="#2DBD96"/>
</svg>
