<svg width="27" height="28" viewBox="0 0 27 28" fill="none" xmlns="http://www.w3.org/2000/svg">
<path d="M13.4926 6.43044L13.9881 5.57616C14.061 5.44962 14.1581 5.33868 14.2739 5.24968C14.3897 5.16067 14.5218 5.09534 14.6629 5.05741C14.8039 5.01949 14.951 5.00971 15.0958 5.02864C15.2406 5.04757 15.3803 5.09484 15.5068 5.16774C15.6333 5.24065 15.7443 5.33776 15.8333 5.45354C15.9223 5.56931 15.9876 5.70149 16.0256 5.84252C16.0635 5.98354 16.0733 6.13066 16.0543 6.27546C16.0354 6.42027 15.9881 6.55993 15.9152 6.68646L11.1527 14.9323H14.5977C15.7132 14.9323 16.3393 16.2438 15.8551 17.1529H5.75878C5.14397 17.1529 4.64847 16.6574 4.64847 16.0426C4.64847 15.4278 5.14397 14.9323 5.75878 14.9323H8.58896L12.2133 8.65105L11.0813 6.68646C10.9476 6.43183 10.9178 6.13535 10.9979 5.85917C11.078 5.58299 11.262 5.34855 11.5111 5.20499C11.7603 5.06143 12.0554 5.01989 12.3345 5.08909C12.6136 5.15828 12.8551 5.33283 13.0084 5.57616L13.4926 6.43044ZM9.20899 18.2955L8.14223 20.146C8.06932 20.2725 7.97221 20.3834 7.85643 20.4724C7.74065 20.5614 7.60848 20.6268 7.46745 20.6647C7.32643 20.7026 7.17931 20.7124 7.03451 20.6935C6.8897 20.6745 6.75004 20.6273 6.62351 20.5544C6.49697 20.4815 6.38603 20.3844 6.29702 20.2686C6.20802 20.1528 6.14268 20.0206 6.10476 19.8796C6.06683 19.7386 6.05706 19.5915 6.07599 19.4467C6.09492 19.3018 6.14219 19.1622 6.21509 19.0357L7.01015 17.6641C7.90275 17.3863 8.6325 17.5988 9.20899 18.2955ZM18.4014 14.9375H21.2917C21.9065 14.9375 22.402 15.433 22.402 16.0478C22.402 16.6627 21.9065 17.1582 21.2917 17.1582H19.6859L20.7692 19.0357C20.9028 19.2903 20.9327 19.5868 20.8526 19.863C20.7724 20.1391 20.5885 20.3736 20.3393 20.5171C20.0902 20.6607 19.7951 20.7022 19.516 20.633C19.2368 20.5638 18.9953 20.3893 18.8421 20.146C17.0186 16.984 15.647 14.6162 14.7387 13.0383C13.8078 11.4325 14.4723 9.82144 15.1306 9.27717C15.8595 10.5294 16.948 12.4174 18.4014 14.9375ZM13.4978 0.285889C6.04092 0.285889 0 6.32768 0 13.7837C0 21.2397 6.04179 27.2815 13.4978 27.2815C20.9547 27.2815 26.9956 21.2397 26.9956 13.7837C26.9956 6.32768 20.9538 0.285889 13.4978 0.285889ZM25.254 13.7837C25.254 20.2444 20.0238 25.5399 13.4978 25.5399C7.03715 25.5399 1.74165 20.3097 1.74165 13.7837C1.74165 7.32304 6.97184 2.02754 13.4978 2.02754C19.9585 2.02754 25.254 7.25773 25.254 13.7837Z" fill="#2DBD96"/>
</svg>
