<svg xmlns="http://www.w3.org/2000/svg" width="22" height="22" viewBox="0 0 28.861 28.861">
  <g id="Group_28826" data-name="Group 28826" transform="translate(-20987.509 -15042.5)">
    <path id="Path_1582" data-name="Path 1582" d="M159.471,103.9A14.431,14.431,0,1,0,145.04,89.471,14.438,14.438,0,0,0,159.471,103.9Zm0-26.5a12.065,12.065,0,1,1-12.065,12.065A12.065,12.065,0,0,1,159.471,77.406Z" transform="translate(20842.469 14967.46)" fill="#2dbd96"/>
    <path id="Path_1583" data-name="Path 1583" d="M333.818,256.255A1.162,1.162,0,0,0,335,255.072v-7.491a1.183,1.183,0,0,0-2.366,0v7.491A1.187,1.187,0,0,0,333.818,256.255Z" transform="translate(20668.08 14808.167)" fill="#2dbd96"/>
    <path id="Path_1584" data-name="Path 1584" d="M333.822,171.546A1.162,1.162,0,0,0,335,170.363V169.18a1.183,1.183,0,1,0-2.366,0v1.183A1.186,1.186,0,0,0,333.822,171.546Z" transform="translate(20668.076 14881.048)" fill="#2dbd96"/>
  </g>
</svg>
