<svg width="27" height="27" viewBox="0 0 27 27" fill="none" xmlns="http://www.w3.org/2000/svg">
<path d="M0 13.0955C0 5.57063 5.89444 0 13.5 0C21.1056 0 27 5.57063 27 13.0955C27 20.6203 21.1056 26.1909 13.5 26.1909C12.1331 26.1909 10.8236 26.0103 9.59175 25.6728C9.35289 25.6064 9.09841 25.6242 8.87119 25.7235L6.19144 26.9081C6.02959 26.9795 5.85269 27.0101 5.67627 26.9971C5.49986 26.9841 5.32934 26.928 5.17969 26.8337C5.03004 26.7393 4.90585 26.6097 4.81804 26.4561C4.73022 26.3026 4.68147 26.1298 4.67606 25.953L4.60181 23.5516C4.59668 23.4054 4.56187 23.2618 4.4995 23.1295C4.43713 22.9972 4.3485 22.879 4.239 22.782C1.61325 20.433 0 17.0308 0 13.0955ZM9.35888 10.6333L5.39325 16.9245C5.01356 17.5287 5.75437 18.2088 6.32306 17.7784L10.584 14.5451C10.7241 14.4386 10.8951 14.3807 11.0711 14.3801C11.2471 14.3795 11.4185 14.4362 11.5594 14.5417L14.7133 16.9077C14.9371 17.0755 15.1932 17.1951 15.4655 17.259C15.7378 17.3229 16.0204 17.3297 16.2955 17.279C16.5706 17.2283 16.8322 17.1211 17.0638 16.9642C17.2953 16.8074 17.4919 16.6042 17.6411 16.3676L21.6068 10.0764C21.9881 9.47227 21.2456 8.79218 20.6769 9.22251L16.416 12.4559C16.2759 12.5623 16.1049 12.6202 15.9289 12.6208C15.7529 12.6214 15.5815 12.5647 15.4406 12.4592L12.2867 10.0916C12.0629 9.92378 11.8068 9.80415 11.5345 9.74023C11.2622 9.67632 10.9796 9.66952 10.7045 9.72025C10.4294 9.77099 10.1678 9.87816 9.93625 10.035C9.70465 10.1919 9.50806 10.395 9.35888 10.6316V10.6333Z" fill="#2DBD96"/>
</svg>
