<svg width="30" height="18" viewBox="0 0 30 18" fill="none" xmlns="http://www.w3.org/2000/svg">
<path d="M21.6924 12.7981C21.3631 12.798 21.0473 12.667 20.8146 12.434C20.5818 12.201 20.4512 11.8852 20.4513 11.5559C20.4515 11.2266 20.5825 10.9108 20.8155 10.6781C21.0484 10.4453 21.3643 10.3147 21.6936 10.3149C22.0229 10.3149 22.3387 10.4457 22.5716 10.6785C22.8044 10.9114 22.9352 11.2272 22.9352 11.5565C22.9352 11.8858 22.8044 12.2016 22.5716 12.4345C22.3387 12.6673 22.0229 12.7981 21.6936 12.7981H21.6924ZM8.02761 12.7981C7.86455 12.798 7.70311 12.7658 7.5525 12.7034C7.40189 12.6409 7.26506 12.5494 7.14982 12.434C6.91709 12.201 6.78643 11.8852 6.7866 11.5559C6.78676 11.2266 6.91773 10.9108 7.1507 10.6781C7.38367 10.4453 7.69954 10.3147 8.02884 10.3149C8.35815 10.3149 8.67396 10.4457 8.90681 10.6785C9.13966 10.9114 9.27048 11.2272 9.27048 11.5565C9.27048 11.8858 9.13966 12.2016 8.90681 12.4345C8.67396 12.6673 8.35815 12.7981 8.02884 12.7981H8.02761ZM22.1328 5.35204L24.6149 1.07222C24.6816 0.95392 24.6987 0.813938 24.6623 0.683068C24.6258 0.552198 24.5389 0.441161 24.4206 0.374382C24.3023 0.307603 24.1623 0.290553 24.0315 0.326983C23.9006 0.363413 23.7895 0.450339 23.7228 0.568638L21.2148 4.89919C19.2229 3.98876 17.0574 3.52104 14.8674 3.52826C12.5784 3.52826 10.4193 4.02071 8.50644 4.88682L5.99843 0.556265C5.96537 0.49777 5.92111 0.446361 5.86817 0.404973C5.81524 0.363585 5.75467 0.333028 5.68993 0.315047C5.62519 0.297066 5.55754 0.292013 5.49084 0.300177C5.42414 0.308341 5.35971 0.329562 5.30122 0.362627C5.24272 0.395693 5.19131 0.439956 5.14992 0.49289C5.10854 0.545823 5.07798 0.60639 5.06 0.671133C5.04202 0.735876 5.03696 0.803526 5.04513 0.870222C5.05329 0.936917 5.07451 1.00135 5.10758 1.05985L7.57599 5.33843C3.33576 7.65218 0.426869 11.9456 0 17.026H29.6952C29.282 11.958 26.3854 7.6658 22.1328 5.35204Z" fill="#2DBD96"/>
</svg>
