<svg width="31" height="25" viewBox="0 0 31 25" fill="none" xmlns="http://www.w3.org/2000/svg">
<path d="M30.2128 2.91563C29.1017 3.39491 27.8926 3.73985 26.6472 3.87419C27.9402 3.10602 28.9085 1.89244 29.3704 0.46114C28.1571 1.18292 26.8279 1.68905 25.4417 1.95707C24.8624 1.33774 24.1618 0.844345 23.3834 0.507643C22.605 0.17094 21.7657 -0.00185824 20.9176 1.50697e-05C17.4864 1.50697e-05 14.727 2.78129 14.727 6.19434C14.727 6.67362 14.785 7.1529 14.8794 7.61402C9.74172 7.34534 5.15952 4.89084 2.11319 1.13286C1.55811 2.08094 1.26724 3.16045 1.27082 4.25907C1.27082 6.40856 2.36372 8.30389 4.0303 9.41858C3.04816 9.3799 2.08901 9.10995 1.23088 8.63068V8.70692C1.23088 11.7169 3.35859 14.2114 6.19432 14.7851C5.66188 14.9234 5.11416 14.9941 4.56405 14.9957C4.16102 14.9957 3.77977 14.9557 3.3949 14.9012C4.17917 17.3557 6.46301 19.1385 9.18256 19.1966C7.05485 20.8632 4.38976 21.8435 1.49593 21.8435C0.976714 21.8435 0.497434 21.8254 0 21.7673C2.74496 23.5283 6.00189 24.5449 9.50934 24.5449C20.8959 24.5449 27.1265 15.1118 27.1265 6.92415C27.1265 6.65546 27.1265 6.38678 27.1083 6.11809C28.3138 5.23578 29.3704 4.14288 30.2128 2.91563Z" fill="#2DBD96"/>
</svg>
