<svg xmlns="http://www.w3.org/2000/svg" width="20.904" height="20.904" viewBox="0 0 27.904 27.904">
  <path id="Icon_awesome-plus" data-name="Icon awesome-plus" d="M25.911,13.212H16.942V4.243A1.993,1.993,0,0,0,14.948,2.25H12.955a1.993,1.993,0,0,0-1.993,1.993v8.969H1.993A1.993,1.993,0,0,0,0,15.205V17.2a1.993,1.993,0,0,0,1.993,1.993h8.969v8.969a1.993,1.993,0,0,0,1.993,1.993h1.993a1.993,1.993,0,0,0,1.993-1.993V19.192h8.969A1.993,1.993,0,0,0,27.9,17.2V15.205A1.993,1.993,0,0,0,25.911,13.212Z" transform="translate(0 -2.25)" fill="#2dbd96"/>
</svg>
